<svg version="1.1" viewBox="0.0 0.0 600.0 371.0" fill="none" stroke="none" stroke-linecap="square" stroke-miterlimit="10" width="600" height="371" xmlns:xlink="http://www.w3.org/1999/xlink" xmlns="http://www.w3.org/2000/svg"><path fill="#ffffff" d="M0 0L600.0 0L600.0 371.0L0 371.0L0 0Z" fill-rule="nonzero"/><path stroke="#333333" stroke-width="1.0" stroke-linecap="butt" d="M85.5 53.5L85.5 298.5" fill-rule="nonzero"/><path stroke="#cccccc" stroke-width="1.0" stroke-linecap="butt" d="M207.5 53.5L207.5 298.5" fill-rule="nonzero"/><path stroke="#cccccc" stroke-width="1.0" stroke-linecap="butt" d="M330.5 53.5L330.5 298.5" fill-rule="nonzero"/><path stroke="#cccccc" stroke-width="1.0" stroke-linecap="butt" d="M452.5 53.5L452.5 298.5" fill-rule="nonzero"/><path stroke="#cccccc" stroke-width="1.0" stroke-linecap="butt" d="M574.5 53.5L574.5 298.5" fill-rule="nonzero"/><path stroke="#333333" stroke-width="1.0" stroke-linecap="butt" d="M78.5 298.5L581.5 298.5" fill-rule="nonzero"/><path stroke="#cccccc" stroke-width="1.0" stroke-linecap="butt" d="M78.5 237.5L581.5 237.5" fill-rule="nonzero"/><path stroke="#cccccc" stroke-width="1.0" stroke-linecap="butt" d="M78.5 175.5L581.5 175.5" fill-rule="nonzero"/><path stroke="#cccccc" stroke-width="1.0" stroke-linecap="butt" d="M78.5 114.5L581.5 114.5" fill-rule="nonzero"/><path stroke="#cccccc" stroke-width="1.0" stroke-linecap="butt" d="M78.5 53.5L581.5 53.5" fill-rule="nonzero"/><clipPath id="id_0"><path d="M78.55 53.416668L581.45 53.416668L581.45 298.45L78.55 298.45L78.55 53.416668Z" clip-rule="nonzero"/></clipPath><path fill="#4285f4" clip-path="url(#id_0)" d="M89.860405 294.897C89.860405 297.3823 87.84569 299.397 85.360405 299.397C82.87513 299.397 80.860405 297.3823 80.860405 294.897C80.860405 292.41174 82.87513 290.397 85.360405 290.397C87.84569 290.397 89.860405 292.41174 89.860405 294.897Z" fill-rule="nonzero"/><path fill="#4285f4" clip-path="url(#id_0)" d="M114.32436 293.387C114.32436 295.87228 112.30965 297.887 109.82436 297.887C107.33909 297.887 105.32436 295.87228 105.32436 293.387C105.32436 290.9017 107.33909 288.887 109.82436 288.887C112.30965 288.887 114.32436 290.9017 114.32436 293.387Z" fill-rule="nonzero"/><path fill="#4285f4" clip-path="url(#id_0)" d="M138.78833 291.39612C138.78833 293.88138 136.7736 295.89612 134.28833 295.89612C131.80304 295.89612 129.78833 293.88138 129.78833 291.39612C129.78833 288.91083 131.80304 286.89612 134.28833 286.89612C136.7736 286.89612 138.78833 288.91083 138.78833 291.39612Z" fill-rule="nonzero"/><path fill="#4285f4" clip-path="url(#id_0)" d="M163.25229 288.83856C163.25229 291.32385 161.23756 293.33856 158.75229 293.33856C156.267 293.33856 154.25229 291.32385 154.25229 288.83856C154.25229 286.35327 156.267 284.33856 158.75229 284.33856C161.23756 284.33856 163.25229 286.35327 163.25229 288.83856Z" fill-rule="nonzero"/><path fill="#4285f4" clip-path="url(#id_0)" d="M187.71625 285.60718C187.71625 288.09247 185.70152 290.10718 183.21625 290.10718C180.73096 290.10718 178.71625 288.09247 178.71625 285.60718C178.71625 283.12192 180.73096 281.10718 183.21625 281.10718C185.70152 281.10718 187.71625 283.12192 187.71625 285.60718Z" fill-rule="nonzero"/><path fill="#4285f4" clip-path="url(#id_0)" d="M212.1802 281.6009C212.1802 284.08618 210.16548 286.1009 207.6802 286.1009C205.19492 286.1009 203.1802 284.08618 203.1802 281.6009C203.1802 279.1156 205.19492 277.1009 207.6802 277.1009C210.16548 277.1009 212.1802 279.1156 212.1802 281.6009Z" fill-rule="nonzero"/><path fill="#4285f4" clip-path="url(#id_0)" d="M236.64417 276.7125C236.64417 279.19775 234.62944 281.2125 232.14417 281.2125C229.65887 281.2125 227.64417 279.19775 227.64417 276.7125C227.64417 274.2272 229.65887 272.2125 232.14417 272.2125C234.62944 272.2125 236.64417 274.2272 236.64417 276.7125Z" fill-rule="nonzero"/><path fill="#4285f4" clip-path="url(#id_0)" d="M261.10812 270.8317C261.10812 273.31696 259.0934 275.3317 256.60812 275.3317C254.12285 275.3317 252.10812 273.31696 252.10812 270.8317C252.10812 268.3464 254.12285 266.3317 256.60812 266.3317C259.0934 266.3317 261.10812 268.3464 261.10812 270.8317Z" fill-rule="nonzero"/><path fill="#4285f4" clip-path="url(#id_0)" d="M285.57208 263.83905C285.57208 266.3243 283.55737 268.33905 281.07208 268.33905C278.5868 268.33905 276.57208 266.3243 276.57208 263.83905C276.57208 261.35376 278.5868 259.33905 281.07208 259.33905C283.55737 259.33905 285.57208 261.35376 285.57208 263.83905Z" fill-rule="nonzero"/><path fill="#4285f4" clip-path="url(#id_0)" d="M310.03604 255.63043C310.03604 258.1157 308.02133 260.13043 305.53604 260.13043C303.05075 260.13043 301.03604 258.1157 301.03604 255.63043C301.03604 253.14514 303.05075 251.13043 305.53604 251.13043C308.02133 251.13043 310.03604 253.14514 310.03604 255.63043Z" fill-rule="nonzero"/><path fill="#4285f4" clip-path="url(#id_0)" d="M334.5 246.10475C334.5 248.59004 332.4853 250.60475 330.0 250.60475C327.5147 250.60475 325.5 248.59004 325.5 246.10475C325.5 243.61948 327.5147 241.60475 330.0 241.60475C332.4853 241.60475 334.5 243.61948 334.5 246.10475Z" fill-rule="nonzero"/><path fill="#4285f4" clip-path="url(#id_0)" d="M358.96396 235.17014C358.96396 237.65543 356.94925 239.67014 354.46396 239.67014C351.97867 239.67014 349.96396 237.65543 349.96396 235.17014C349.96396 232.68486 351.97867 230.67014 354.46396 230.67014C356.94925 230.67014 358.96396 232.68486 358.96396 235.17014Z" fill-rule="nonzero"/><path fill="#4285f4" clip-path="url(#id_0)" d="M383.42792 222.67345C383.42792 225.15872 381.4132 227.17345 378.92792 227.17345C376.44263 227.17345 374.42792 225.15872 374.42792 222.67345C374.42792 220.18816 376.44263 218.17345 378.92792 218.17345C381.4132 218.17345 383.42792 220.18816 383.42792 222.67345Z" fill-rule="nonzero"/><path fill="#4285f4" clip-path="url(#id_0)" d="M407.89188 208.55339C407.89188 211.03868 405.87717 213.05339 403.39188 213.05339C400.9066 213.05339 398.89188 211.03868 398.89188 208.55339C398.89188 206.06812 400.9066 204.05339 403.39188 204.05339C405.87717 204.05339 407.89188 206.06812 407.89188 208.55339Z" fill-rule="nonzero"/><path fill="#4285f4" clip-path="url(#id_0)" d="M432.35583 192.68748C432.35583 195.17278 430.34113 197.18748 427.85583 197.18748C425.37054 197.18748 423.35583 195.17278 423.35583 192.68748C423.35583 190.20221 425.37054 188.18748 427.85583 188.18748C430.34113 188.18748 432.35583 190.20221 432.35583 192.68748Z" fill-rule="nonzero"/><path fill="#4285f4" clip-path="url(#id_0)" d="M456.8198 175.04509C456.8198 177.53036 454.80508 179.54509 452.3198 179.54509C449.8345 179.54509 447.8198 177.53036 447.8198 175.04509C447.8198 172.5598 449.8345 170.54509 452.3198 170.54509C454.80508 170.54509 456.8198 172.5598 456.8198 175.04509Z" fill-rule="nonzero"/><path fill="#4285f4" clip-path="url(#id_0)" d="M481.28375 155.44241C481.28375 157.9277 479.26904 159.94241 476.78375 159.94241C474.29846 159.94241 472.28375 157.9277 472.28375 155.44241C472.28375 152.95714 474.29846 150.94241 476.78375 150.94241C479.26904 150.94241 481.28375 152.95714 481.28375 155.44241Z" fill-rule="nonzero"/><path fill="#4285f4" clip-path="url(#id_0)" d="M505.7477 133.94075C505.7477 136.42603 503.733 138.44075 501.2477 138.44075C498.76242 138.44075 496.7477 136.42603 496.7477 133.94075C496.7477 131.45546 498.76242 129.44075 501.2477 129.44075C503.733 129.44075 505.7477 131.45546 505.7477 133.94075Z" fill-rule="nonzero"/><path fill="#4285f4" clip-path="url(#id_0)" d="M530.2117 110.54006C530.2117 113.025345 528.19696 115.04006 525.7117 115.04006C523.2264 115.04006 521.2117 113.025345 521.2117 110.54006C521.2117 108.05478 523.2264 106.04006 525.7117 106.04006C528.19696 106.04006 530.2117 108.05478 530.2117 110.54006Z" fill-rule="nonzero"/><path fill="#4285f4" clip-path="url(#id_0)" d="M554.67566 85.14848C554.67566 87.633766 552.6609 89.64848 550.17566 89.64848C547.69037 89.64848 545.67566 87.633766 545.67566 85.14848C545.67566 82.6632 547.69037 80.64848 550.17566 80.64848C552.6609 80.64848 554.67566 82.6632 554.67566 85.14848Z" fill-rule="nonzero"/><path fill="#4285f4" clip-path="url(#id_0)" d="M579.1396 58.04167C579.1396 60.52695 577.1249 62.54167 574.6396 62.54167C572.1543 62.54167 570.1396 60.52695 570.1396 58.04167C570.1396 55.55639 572.1543 53.54167 574.6396 53.54167C577.1249 53.54167 579.1396 55.55639 579.1396 58.04167Z" fill-rule="nonzero"/><path fill="#db4437" clip-path="url(#id_0)" d="M85.360405 290.44568L89.860405 294.94568L85.360405 299.44568L80.860405 294.94568Z" fill-rule="nonzero"/><path fill="#db4437" clip-path="url(#id_0)" d="M109.82436 288.9502L114.32436 293.4502L109.82436 297.9502L105.32436 293.4502Z" fill-rule="nonzero"/><path fill="#db4437" clip-path="url(#id_0)" d="M134.28833 286.99127L138.78833 291.49127L134.28833 295.99127L129.78833 291.49127Z" fill-rule="nonzero"/><path fill="#db4437" clip-path="url(#id_0)" d="M158.75229 284.47452L163.25229 288.97452L158.75229 293.47452L154.25229 288.97452Z" fill-rule="nonzero"/><path fill="#db4437" clip-path="url(#id_0)" d="M183.21625 281.2977L187.71625 285.7977L183.21625 290.2977L178.71625 285.7977Z" fill-rule="nonzero"/><path fill="#db4437" clip-path="url(#id_0)" d="M207.6802 277.3522L212.1802 281.8522L207.6802 286.3522L203.1802 281.8522Z" fill-rule="nonzero"/><path fill="#db4437" clip-path="url(#id_0)" d="M232.14417 272.52057L236.64417 277.02057L232.14417 281.52057L227.64417 277.02057Z" fill-rule="nonzero"/><path fill="#db4437" clip-path="url(#id_0)" d="M256.60812 266.77423L261.10812 271.27423L256.60812 275.77423L252.10812 271.27423Z" fill-rule="nonzero"/><path fill="#db4437" clip-path="url(#id_0)" d="M281.07208 259.74188L285.57208 264.24188L281.07208 268.74188L276.57208 264.24188Z" fill-rule="nonzero"/><path fill="#db4437" clip-path="url(#id_0)" d="M305.53604 251.55621L310.03604 256.0562L305.53604 260.5562L301.03604 256.0562Z" fill-rule="nonzero"/><path fill="#db4437" clip-path="url(#id_0)" d="M330.0 242.02287L334.5 246.52287L330.0 251.02287L325.5 246.52287Z" fill-rule="nonzero"/><path fill="#db4437" clip-path="url(#id_0)" d="M354.46396 231.03014L358.96396 235.53014L354.46396 240.03014L349.96396 235.53014Z" fill-rule="nonzero"/><path fill="#db4437" clip-path="url(#id_0)" d="M378.92792 218.48567L383.42792 222.98567L378.92792 227.48567L374.42792 222.98567Z" fill-rule="nonzero"/><path fill="#db4437" clip-path="url(#id_0)" d="M403.39188 204.29527L407.89188 208.79527L403.39188 213.29527L398.89188 208.79527Z" fill-rule="nonzero"/><path fill="#db4437" clip-path="url(#id_0)" d="M427.85583 188.39334L432.35583 192.89334L427.85583 197.39334L423.35583 192.89334Z" fill-rule="nonzero"/><path fill="#db4437" clip-path="url(#id_0)" d="M452.3198 170.71078L456.8198 175.21078L452.3198 179.71078L447.8198 175.21078Z" fill-rule="nonzero"/><path fill="#db4437" clip-path="url(#id_0)" d="M476.78375 151.21683L481.28375 155.71683L476.78375 160.21683L472.28375 155.71683Z" fill-rule="nonzero"/><path fill="#db4437" clip-path="url(#id_0)" d="M501.2477 129.87306L505.7477 134.37306L501.2477 138.87306L496.7477 134.37306Z" fill-rule="nonzero"/><path fill="#db4437" clip-path="url(#id_0)" d="M525.7117 106.669975L530.2117 111.169975L525.7117 115.669975L521.2117 111.169975Z" fill-rule="nonzero"/><path fill="#db4437" clip-path="url(#id_0)" d="M550.17566 81.61672L554.67566 86.11672L550.17566 90.61672L545.67566 86.11672Z" fill-rule="nonzero"/><path fill="#db4437" clip-path="url(#id_0)" d="M574.6396 54.741367L579.1396 59.241367L574.6396 63.741367L570.1396 59.241367Z" fill-rule="nonzero"/><path fill="#424242" d="M291.89062 341.84064L289.14062 341.84064L289.14062 349.45L288.03125 349.45L288.03125 341.84064L285.28125 341.84064L285.28125 340.91876L291.89062 340.91876L291.89062 341.84064ZM295.45312 349.575Q294.15625 349.575 293.34375 348.73126Q292.54688 347.8719 292.54688 346.45L292.54688 346.2625Q292.54688 345.3094 292.90625 344.575Q293.26562 343.825 293.90625 343.41876Q294.5625 342.9969 295.3125 342.9969Q296.54688 342.9969 297.23438 343.8094Q297.92188 344.6219 297.92188 346.1375L297.92188 346.59064L293.625 346.59064Q293.65625 347.52814 294.17188 348.10626Q294.70312 348.6844 295.51562 348.6844Q296.07812 348.6844 296.46875 348.45Q296.875 348.21564 297.1875 347.825L297.84375 348.34064Q297.04688 349.575 295.45312 349.575ZM295.3125 343.8875Q294.65625 343.8875 294.20312 344.3719Q293.76562 344.84064 293.67188 345.7L296.84375 345.7L296.84375 345.6219Q296.79688 344.79376 296.39062 344.34064Q296.0 343.8875 295.3125 343.8875ZM299.84375 343.10626L299.875 343.8094Q300.5625 342.9969 301.75 342.9969Q303.07812 342.9969 303.5625 344.0125Q303.875 343.5594 304.375 343.27814Q304.89062 342.9969 305.57812 342.9969Q307.67188 342.9969 307.70312 345.2L307.70312 349.45L306.625 349.45L306.625 345.2625Q306.625 344.59064 306.3125 344.2625Q306.0 343.91876 305.26562 343.91876Q304.65625 343.91876 304.25 344.27814Q303.85938 344.6375 303.79688 345.2469L303.79688 349.45L302.71875 349.45L302.71875 345.29376Q302.71875 343.91876 301.35938 343.91876Q300.29688 343.91876 299.90625 344.825L299.90625 349.45L298.8125 349.45L298.8125 343.10626L299.84375 343.10626ZM315.17188 346.35626Q315.17188 347.79376 314.51562 348.6844Q313.85938 349.575 312.71875 349.575Q311.5625 349.575 310.90625 348.84064L310.90625 351.8875L309.82812 351.8875L309.82812 343.10626L310.8125 343.10626L310.85938 343.8094Q311.53125 342.9969 312.70312 342.9969Q313.84375 342.9969 314.5 343.85626Q315.17188 344.71564 315.17188 346.2469L315.17188 346.35626ZM314.09375 346.23126Q314.09375 345.15314 313.625 344.54376Q313.17188 343.91876 312.375 343.91876Q311.39062 343.91876 310.90625 344.77814L310.90625 347.8094Q311.39062 348.6844 312.39062 348.6844Q313.17188 348.6844 313.625 348.075Q314.09375 347.45 314.09375 346.23126ZM319.45312 349.575Q318.15625 349.575 317.34375 348.73126Q316.54688 347.8719 316.54688 346.45L316.54688 346.2625Q316.54688 345.3094 316.90625 344.575Q317.26562 343.825 317.90625 343.41876Q318.5625 342.9969 319.3125 342.9969Q320.54688 342.9969 321.23438 343.8094Q321.92188 344.6219 321.92188 346.1375L321.92188 346.59064L317.625 346.59064Q317.65625 347.52814 318.17188 348.10626Q318.70312 348.6844 319.51562 348.6844Q320.07812 348.6844 320.46875 348.45Q320.875 348.21564 321.1875 347.825L321.84375 348.34064Q321.04688 349.575 319.45312 349.575ZM319.3125 343.8875Q318.65625 343.8875 318.20312 344.3719Q317.76562 344.84064 317.67188 345.7L320.84375 345.7L320.84375 345.6219Q320.79688 344.79376 320.39062 344.34064Q320.0 343.8875 319.3125 343.8875ZM325.89062 344.075Q325.64062 344.04376 325.35938 344.04376Q324.28125 344.04376 323.90625 344.95L323.90625 349.45L322.82812 349.45L322.82812 343.10626L323.875 343.10626L323.89062 343.84064Q324.42188 342.9969 325.40625 342.9969Q325.71875 342.9969 325.89062 343.075L325.89062 344.075ZM330.73438 349.45Q330.64062 349.2625 330.57812 348.77814Q329.82812 349.575 328.78125 349.575Q327.84375 349.575 327.23438 349.04376Q326.64062 348.5125 326.64062 347.6844Q326.64062 346.7 327.39062 346.15314Q328.14062 345.60626 329.51562 345.60626L330.5625 345.60626L330.5625 345.10626Q330.5625 344.54376 330.21875 344.21564Q329.89062 343.8719 329.21875 343.8719Q328.64062 343.8719 328.25 344.16876Q327.85938 344.45 327.85938 344.8719L326.76562 344.8719Q326.76562 344.3875 327.09375 343.95Q327.4375 343.5125 328.01562 343.2625Q328.59375 342.9969 329.28125 342.9969Q330.39062 342.9969 331.0 343.54376Q331.625 344.09064 331.65625 345.04376L331.65625 347.96564Q331.65625 348.84064 331.875 349.35626L331.875 349.45L330.73438 349.45ZM328.9375 348.6219Q329.45312 348.6219 329.90625 348.35626Q330.35938 348.09064 330.5625 347.66876L330.5625 346.3719L329.71875 346.3719Q327.71875 346.3719 327.71875 347.54376Q327.71875 348.04376 328.0625 348.34064Q328.40625 348.6219 328.9375 348.6219ZM335.29688 341.575L335.29688 343.10626L336.46875 343.10626L336.46875 343.95L335.29688 343.95L335.29688 347.8719Q335.29688 348.2625 335.45312 348.45Q335.60938 348.6375 335.98438 348.6375Q336.17188 348.6375 336.5 348.575L336.5 349.45Q336.07812 349.575 335.67188 349.575Q334.95312 349.575 334.57812 349.1375Q334.20312 348.6844 334.20312 347.8719L334.20312 343.95L333.04688 343.95L333.04688 343.10626L334.20312 343.10626L334.20312 341.575L335.29688 341.575ZM341.73438 348.825Q341.10938 349.575 339.875 349.575Q338.85938 349.575 338.32812 348.98126Q337.79688 348.3875 337.79688 347.23126L337.79688 343.10626L338.875 343.10626L338.875 347.2Q338.875 348.65314 340.04688 348.65314Q341.29688 348.65314 341.70312 347.71564L341.70312 343.10626L342.79688 343.10626L342.79688 349.45L341.76562 349.45L341.73438 348.825ZM347.89062 344.075Q347.64062 344.04376 347.35938 344.04376Q346.28125 344.04376 345.90625 344.95L345.90625 349.45L344.82812 349.45L344.82812 343.10626L345.875 343.10626L345.89062 343.84064Q346.42188 342.9969 347.40625 342.9969Q347.71875 342.9969 347.89062 343.075L347.89062 344.075ZM351.45312 349.575Q350.15625 349.575 349.34375 348.73126Q348.54688 347.8719 348.54688 346.45L348.54688 346.2625Q348.54688 345.3094 348.90625 344.575Q349.26562 343.825 349.90625 343.41876Q350.5625 342.9969 351.3125 342.9969Q352.54688 342.9969 353.23438 343.8094Q353.92188 344.6219 353.92188 346.1375L353.92188 346.59064L349.625 346.59064Q349.65625 347.52814 350.17188 348.10626Q350.70312 348.6844 351.51562 348.6844Q352.07812 348.6844 352.46875 348.45Q352.875 348.21564 353.1875 347.825L353.84375 348.34064Q353.04688 349.575 351.45312 349.575ZM351.3125 343.8875Q350.65625 343.8875 350.20312 344.3719Q349.76562 344.84064 349.67188 345.7L352.84375 345.7L352.84375 345.6219Q352.79688 344.79376 352.39062 344.34064Q352.0 343.8875 351.3125 343.8875ZM360.0625 340.59064L358.95312 340.59064L358.95312 350.3875L360.0625 350.3875L360.0625 351.27814L357.85938 351.27814L357.85938 339.7L360.0625 339.7L360.0625 340.59064ZM360.76562 342.325Q360.76562 341.71564 361.20312 341.2625Q361.64062 340.79376 362.25 340.79376Q362.85938 340.79376 363.29688 341.2625Q363.73438 341.71564 363.73438 342.325Q363.73438 342.95 363.29688 343.3875Q362.85938 343.825 362.25 343.825Q361.64062 343.825 361.20312 343.3875Q360.76562 342.95 360.76562 342.325ZM362.25 343.075Q362.57812 343.075 362.78125 342.8719Q363.0 342.65314 363.0 342.325Q363.0 341.98126 362.78125 341.7625Q362.57812 341.54376 362.25 341.54376Q361.9375 341.54376 361.71875 341.77814Q361.5 342.0125 361.5 342.325Q361.5 342.6375 361.71875 342.85626Q361.9375 343.075 362.25 343.075ZM371.26562 346.7469Q371.10938 348.09064 370.26562 348.84064Q369.42188 349.575 368.03125 349.575Q366.51562 349.575 365.60938 348.4969Q364.70312 347.40314 364.70312 345.575L364.70312 344.7625Q364.70312 343.575 365.125 342.66876Q365.54688 341.7625 366.32812 341.27814Q367.10938 340.79376 368.125 340.79376Q369.48438 340.79376 370.29688 341.5594Q371.125 342.325 371.26562 343.65314L370.14062 343.65314Q369.98438 342.6375 369.5 342.1844Q369.01562 341.73126 368.125 341.73126Q367.04688 341.73126 366.4375 342.52814Q365.82812 343.325 365.82812 344.79376L365.82812 345.6219Q365.82812 347.0125 366.40625 347.84064Q366.98438 348.65314 368.03125 348.65314Q368.96875 348.65314 369.46875 348.23126Q369.96875 347.79376 370.14062 346.7469L371.26562 346.7469ZM372.04688 339.7L374.26562 339.7L374.26562 351.27814L372.04688 351.27814L372.04688 350.3875L373.1875 350.3875L373.1875 340.59064L372.04688 340.59064L372.04688 339.7Z" fill-rule="nonzero"/><path fill="#424242" d="M27.846888 231.91771Q29.190638 232.07396 29.940638 232.91771Q30.675013 233.76146 30.675013 235.15208Q30.675013 236.66771 29.596888 237.57396Q28.503138 238.48021 26.675013 238.48021L25.862513 238.48021Q24.675013 238.48021 23.768763 238.05833Q22.862513 237.63646 22.378138 236.85521Q21.893763 236.07396 21.893763 235.05833Q21.893763 233.69896 22.659388 232.88646Q23.425013 232.05833 24.753138 231.91771L24.753138 233.04271Q23.737513 233.19896 23.284388 233.68333Q22.831263 234.16771 22.831263 235.05833Q22.831263 236.13646 23.628138 236.74583Q24.425013 237.35521 25.893763 237.35521L26.721888 237.35521Q28.112513 237.35521 28.940638 236.77708Q29.753138 236.19896 29.753138 235.15208Q29.753138 234.21458 29.331263 233.71458Q28.893763 233.21458 27.846888 233.04271L27.846888 231.91771ZM27.315638 230.65208Q26.393763 230.65208 25.643763 230.29271Q24.893763 229.91771 24.503138 229.26146Q24.096888 228.60521 24.096888 227.77708Q24.096888 226.48021 24.987513 225.68333Q25.878138 224.87083 27.378138 224.87083L27.456263 224.87083Q28.378138 224.87083 29.112513 225.23021Q29.846888 225.58958 30.268763 226.24583Q30.675013 226.90208 30.675013 227.76146Q30.675013 229.04271 29.784388 229.85521Q28.878138 230.65208 27.393763 230.65208L27.315638 230.65208ZM27.456263 229.55833Q28.503138 229.55833 29.143763 229.07396Q29.784388 228.57396 29.784388 227.76146Q29.784388 226.93333 29.143763 226.44896Q28.487513 225.96458 27.315638 225.96458Q26.284388 225.96458 25.643763 226.46458Q24.987513 226.94896 24.987513 227.77708Q24.987513 228.57396 25.628138 229.07396Q26.253138 229.55833 27.456263 229.55833ZM24.206263 222.33958L25.003138 222.30833Q24.096888 221.57396 24.096888 220.40208Q24.096888 218.38646 26.362513 218.37083L30.550013 218.37083L30.550013 219.46458L26.346888 219.46458Q25.675013 219.46458 25.346888 219.77708Q25.018763 220.07396 25.018763 220.73021Q25.018763 221.26146 25.300013 221.66771Q25.581263 222.05833 26.034388 222.27708L30.550013 222.27708L30.550013 223.35521L24.206263 223.35521L24.206263 222.33958ZM27.331263 216.62083Q25.862513 216.62083 24.987513 215.93333Q24.096888 215.24583 24.096888 214.12083Q24.096888 213.01146 24.846888 212.35521L21.550013 212.35521L21.550013 211.27708L30.550013 211.27708L30.550013 212.27708L29.862513 212.32396Q30.675013 212.98021 30.675013 214.13646Q30.675013 215.23021 29.768763 215.93333Q28.862513 216.62083 27.409388 216.62083L27.331263 216.62083ZM27.456263 215.54271Q28.534388 215.54271 29.143763 215.10521Q29.753138 214.65208 29.753138 213.87083Q29.753138 212.83958 28.815638 212.35521L25.909388 212.35521Q25.018763 212.83958 25.018763 213.85521Q25.018763 214.65208 25.628138 215.10521Q26.237513 215.54271 27.456263 215.54271ZM29.925013 205.44896Q30.675013 206.07396 30.675013 207.30833Q30.675013 208.32396 30.081263 208.85521Q29.487513 209.38646 28.331263 209.38646L24.206263 209.38646L24.206263 208.30833L28.300013 208.30833Q29.753138 208.30833 29.753138 207.13646Q29.753138 205.88646 28.815638 205.48021L24.206263 205.48021L24.206263 204.38646L30.550013 204.38646L30.550013 205.41771L29.925013 205.44896ZM29.784388 199.82396Q29.784388 199.24583 29.440638 198.80833Q29.081263 198.37083 28.550013 198.32396L28.550013 197.29271Q29.096888 197.32396 29.596888 197.68333Q30.081263 198.02708 30.378138 198.60521Q30.675013 199.16771 30.675013 199.82396Q30.675013 201.12083 29.815638 201.88646Q28.940638 202.63646 27.440638 202.63646L27.253138 202.63646Q26.331263 202.63646 25.612513 202.30833Q24.893763 201.96458 24.503138 201.33958Q24.096888 200.69896 24.096888 199.82396Q24.096888 198.76146 24.737513 198.05833Q25.362513 197.33958 26.393763 197.29271L26.393763 198.32396Q25.768763 198.37083 25.378138 198.79271Q24.987513 199.21458 24.987513 199.82396Q24.987513 200.65208 25.581263 201.10521Q26.175013 201.55833 27.300013 201.55833L27.503138 201.55833Q28.596888 201.55833 29.190638 201.10521Q29.784388 200.65208 29.784388 199.82396ZM22.675013 194.88646L24.206263 194.88646L24.206263 193.71458L25.050013 193.71458L25.050013 194.88646L28.971888 194.88646Q29.362513 194.88646 29.550013 194.73021Q29.737513 194.57396 29.737513 194.19896Q29.737513 194.01146 29.675013 193.68333L30.550013 193.68333Q30.675013 194.10521 30.675013 194.51146Q30.675013 195.23021 30.237513 195.60521Q29.784388 195.98021 28.971888 195.98021L25.050013 195.98021L25.050013 197.13646L24.206263 197.13646L24.206263 195.98021L22.675013 195.98021L22.675013 194.88646ZM30.550013 191.18333L30.550013 192.26146L24.206263 192.26146L24.206263 191.18333L30.550013 191.18333ZM22.534388 192.35521Q22.268763 192.35521 22.081263 192.19896Q21.893763 192.02708 21.893763 191.71458Q21.893763 191.40208 22.081263 191.24583Q22.268763 191.07396 22.534388 191.07396Q22.784388 191.07396 22.971888 191.24583Q23.143763 191.40208 23.143763 191.71458Q23.143763 192.02708 22.971888 192.19896Q22.784388 192.35521 22.534388 192.35521ZM29.081263 187.27708L24.206263 185.69896L24.206263 184.58958L30.550013 186.87083L30.550013 187.69896L24.206263 189.99583L24.206263 188.88646L29.081263 187.27708ZM30.550013 182.18333L30.550013 183.26146L24.206263 183.26146L24.206263 182.18333L30.550013 182.18333ZM22.534388 183.35521Q22.268763 183.35521 22.081263 183.19896Q21.893763 183.02708 21.893763 182.71458Q21.893763 182.40208 22.081263 182.24583Q22.268763 182.07396 22.534388 182.07396Q22.784388 182.07396 22.971888 182.24583Q23.143763 182.40208 23.143763 182.71458Q23.143763 183.02708 22.971888 183.19896Q22.784388 183.35521 22.534388 183.35521ZM22.675013 178.88646L24.206263 178.88646L24.206263 177.71458L25.050013 177.71458L25.050013 178.88646L28.971888 178.88646Q29.362513 178.88646 29.550013 178.73021Q29.737513 178.57396 29.737513 178.19896Q29.737513 178.01146 29.675013 177.68333L30.550013 177.68333Q30.675013 178.10521 30.675013 178.51146Q30.675013 179.23021 30.237513 179.60521Q29.784388 179.98021 28.971888 179.98021L25.050013 179.98021L25.050013 181.13646L24.206263 181.13646L24.206263 179.98021L22.675013 179.98021L22.675013 178.88646ZM28.956263 174.29271L24.206263 172.80833L24.206263 171.65208L31.534388 174.19896Q33.11251 174.79271 33.11251 176.07396L33.096886 176.29271L33.01876 176.68333L32.14376 176.68333L32.159386 176.40208Q32.159386 175.83958 31.940638 175.54271Q31.721888 175.23021 31.128138 175.02708L30.471888 174.79271L24.206263 177.05833L24.206263 175.87083L28.956263 174.29271ZM21.690638 165.12083L21.690638 166.23021L31.487513 166.23021L31.487513 165.12083L32.378136 165.12083L32.378136 167.32396L20.800013 167.32396L20.800013 165.12083L21.690638 165.12083ZM24.206263 163.19896L27.925013 163.19896Q28.878138 163.18333 29.331263 162.88646Q29.784388 162.58958 29.784388 161.90208Q29.784388 160.74583 28.893763 160.37083L24.206263 160.37083L24.206263 159.29271L30.550013 159.29271L30.550013 160.26146L29.878138 160.32396Q30.675013 160.87083 30.675013 161.85521Q30.675013 162.71458 30.237513 163.19896L32.98751 163.19896L32.98751 164.27708L24.206263 164.27708L24.206263 163.19896ZM26.753138 154.68333Q26.331263 156.12083 25.721888 156.79271Q25.112513 157.44896 24.221888 157.44896Q23.221888 157.44896 22.565638 156.65208Q21.893763 155.83958 21.893763 154.54271Q21.893763 153.66771 22.237513 152.98021Q22.581263 152.29271 23.175013 151.91771Q23.768763 151.52708 24.487513 151.52708L24.487513 152.66771Q23.706263 152.66771 23.268763 153.16771Q22.831263 153.65208 22.831263 154.54271Q22.831263 155.37083 23.206263 155.83958Q23.565638 156.30833 24.206263 156.30833Q24.737513 156.30833 25.096888 155.87083Q25.456263 155.41771 25.753138 154.35521Q26.050013 153.29271 26.409388 152.69896Q26.768763 152.08958 27.253138 151.80833Q27.737513 151.51146 28.378138 151.51146Q29.425013 151.51146 30.050013 152.32396Q30.675013 153.13646 30.675013 154.48021Q30.675013 155.37083 30.331263 156.13646Q29.987513 156.88646 29.409388 157.30833Q28.815638 157.71458 28.081263 157.71458L28.081263 156.58958Q28.846888 156.58958 29.300013 156.01146Q29.753138 155.43333 29.753138 154.48021Q29.753138 153.58958 29.393763 153.12083Q29.018763 152.65208 28.393763 152.65208Q27.768763 152.65208 27.425013 153.08958Q27.081263 153.52708 26.753138 154.68333ZM31.284388 150.15208L31.284388 151.07396L22.018763 147.51146L22.018763 146.58958L31.284388 150.15208ZM29.784388 142.82396Q29.784388 142.24583 29.440638 141.80833Q29.081263 141.37083 28.550013 141.32396L28.550013 140.29271Q29.096888 140.32396 29.596888 140.68333Q30.081263 141.02708 30.378138 141.60521Q30.675013 142.16771 30.675013 142.82396Q30.675013 144.12083 29.815638 144.88646Q28.940638 145.63646 27.440638 145.63646L27.253138 145.63646Q26.331263 145.63646 25.612513 145.30833Q24.893763 144.96458 24.503138 144.33958Q24.096888 143.69896 24.096888 142.82396Q24.096888 141.76146 24.737513 141.05833Q25.362513 140.33958 26.393763 140.29271L26.393763 141.32396Q25.768763 141.37083 25.378138 141.79271Q24.987513 142.21458 24.987513 142.82396Q24.987513 143.65208 25.581263 144.10521Q26.175013 144.55833 27.300013 144.55833L27.503138 144.55833Q28.596888 144.55833 29.190638 144.10521Q29.784388 143.65208 29.784388 142.82396ZM24.206263 138.33958L24.909388 138.30833Q24.096888 137.62083 24.096888 136.43333Q24.096888 135.10521 25.112513 134.62083Q24.659388 134.30833 24.378138 133.80833Q24.096888 133.29271 24.096888 132.60521Q24.096888 130.51146 26.300013 130.48021L30.550013 130.48021L30.550013 131.55833L26.362513 131.55833Q25.690638 131.55833 25.362513 131.87083Q25.018763 132.18333 25.018763 132.91771Q25.018763 133.52708 25.378138 133.93333Q25.737513 134.32396 26.346888 134.38646L30.550013 134.38646L30.550013 135.46458L26.393763 135.46458Q25.018763 135.46458 25.018763 136.82396Q25.018763 137.88646 25.925013 138.27708L30.550013 138.27708L30.550013 139.37083L24.206263 139.37083L24.206263 138.33958ZM20.800013 129.13646L20.800013 126.91771L32.378136 126.91771L32.378136 129.13646L31.487513 129.13646L31.487513 127.995834L21.690638 127.995834L21.690638 129.13646L20.800013 129.13646Z" fill-rule="nonzero"/><path fill="#757575" d="M61.6125 299.3094Q61.6125 301.21564 60.95625 302.15314Q60.315624 303.075 58.925 303.075Q57.565624 303.075 56.909374 302.16876Q56.253124 301.2625 56.221874 299.45L56.221874 298.0125Q56.221874 296.1219 56.8625 295.21564Q57.51875 294.29376 58.909374 294.29376Q60.284374 294.29376 60.940624 295.1844Q61.596874 296.0594 61.6125 297.90314L61.6125 299.3094ZM60.51875 297.825Q60.51875 296.45 60.128124 295.825Q59.753124 295.1844 58.909374 295.1844Q58.08125 295.1844 57.690624 295.825Q57.315624 296.45 57.315624 297.7469L57.315624 299.48126Q57.315624 300.85626 57.70625 301.52814Q58.1125 302.1844 58.925 302.1844Q59.721874 302.1844 60.1125 301.5594Q60.503124 300.9344 60.51875 299.60626L60.51875 297.825ZM63.39375 302.3875Q63.39375 302.10626 63.55 301.91876Q63.721874 301.73126 64.05 301.73126Q64.39375 301.73126 64.56563 301.91876Q64.7375 302.10626 64.7375 302.3875Q64.7375 302.65314 64.56563 302.84064Q64.39375 303.0125 64.05 303.0125Q63.721874 303.0125 63.55 302.84064Q63.39375 302.65314 63.39375 302.3875ZM71.6125 299.3094Q71.6125 301.21564 70.95625 302.15314Q70.31563 303.075 68.925 303.075Q67.56563 303.075 66.90938 302.16876Q66.25313 301.2625 66.22188 299.45L66.22188 298.0125Q66.22188 296.1219 66.8625 295.21564Q67.51875 294.29376 68.90938 294.29376Q70.28438 294.29376 70.94063 295.1844Q71.59688 296.0594 71.6125 297.90314L71.6125 299.3094ZM70.51875 297.825Q70.51875 296.45 70.12813 295.825Q69.75313 295.1844 68.90938 295.1844Q68.08125 295.1844 67.69063 295.825Q67.31563 296.45 67.31563 297.7469L67.31563 299.48126Q67.31563 300.85626 67.70625 301.52814Q68.1125 302.1844 68.925 302.1844Q69.72188 302.1844 70.1125 301.5594Q70.50313 300.9344 70.51875 299.60626L70.51875 297.825Z" fill-rule="nonzero"/><path fill="#757575" d="M61.6125 238.05104Q61.6125 239.95729 60.95625 240.89479Q60.315624 241.81667 58.925 241.81667Q57.565624 241.81667 56.909374 240.91042Q56.253124 240.00417 56.221874 238.19167L56.221874 236.75417Q56.221874 234.86354 56.8625 233.95729Q57.51875 233.03542 58.909374 233.03542Q60.284374 233.03542 60.940624 233.92604Q61.596874 234.80104 61.6125 236.64479L61.6125 238.05104ZM60.51875 236.56667Q60.51875 235.19167 60.128124 234.56667Q59.753124 233.92604 58.909374 233.92604Q58.08125 233.92604 57.690624 234.56667Q57.315624 235.19167 57.315624 236.48854L57.315624 238.22292Q57.315624 239.59792 57.70625 240.26979Q58.1125 240.92604 58.925 240.92604Q59.721874 240.92604 60.1125 240.30104Q60.503124 239.67604 60.51875 238.34792L60.51875 236.56667ZM63.39375 241.12917Q63.39375 240.84792 63.55 240.66042Q63.721874 240.47292 64.05 240.47292Q64.39375 240.47292 64.56563 240.66042Q64.7375 240.84792 64.7375 241.12917Q64.7375 241.39479 64.56563 241.58229Q64.39375 241.75417 64.05 241.75417Q63.721874 241.75417 63.55 241.58229Q63.39375 241.39479 63.39375 241.12917ZM71.84688 241.69167L66.25313 241.69167L66.25313 240.91042L69.20625 237.62917Q69.8625 236.87917 70.1125 236.42604Q70.3625 235.95729 70.3625 235.45729Q70.3625 234.78542 69.95625 234.36354Q69.56563 233.92604 68.87813 233.92604Q68.08125 233.92604 67.62813 234.39479Q67.175 234.84792 67.175 235.67604L66.09688 235.67604Q66.09688 234.48854 66.84688 233.76979Q67.6125 233.03542 68.87813 233.03542Q70.08125 233.03542 70.76875 233.66042Q71.45625 234.28542 71.45625 235.33229Q71.45625 236.58229 69.84688 238.33229L67.56563 240.80104L71.84688 240.80104L71.84688 241.69167Z" fill-rule="nonzero"/><path fill="#757575" d="M61.6125 176.79271Q61.6125 178.69896 60.95625 179.63646Q60.315624 180.55833 58.925 180.55833Q57.565624 180.55833 56.909374 179.65208Q56.253124 178.74583 56.221874 176.93333L56.221874 175.49583Q56.221874 173.60521 56.8625 172.69896Q57.51875 171.77708 58.909374 171.77708Q60.284374 171.77708 60.940624 172.66771Q61.596874 173.54271 61.6125 175.38646L61.6125 176.79271ZM60.51875 175.30833Q60.51875 173.93333 60.128124 173.30833Q59.753124 172.66771 58.909374 172.66771Q58.08125 172.66771 57.690624 173.30833Q57.315624 173.93333 57.315624 175.23021L57.315624 176.96458Q57.315624 178.33958 57.70625 179.01146Q58.1125 179.66771 58.925 179.66771Q59.721874 179.66771 60.1125 179.04271Q60.503124 178.41771 60.51875 177.08958L60.51875 175.30833ZM63.39375 179.87083Q63.39375 179.58958 63.55 179.40208Q63.721874 179.21458 64.05 179.21458Q64.39375 179.21458 64.56563 179.40208Q64.7375 179.58958 64.7375 179.87083Q64.7375 180.13646 64.56563 180.32396Q64.39375 180.49583 64.05 180.49583Q63.721874 180.49583 63.55 180.32396Q63.39375 180.13646 63.39375 179.87083ZM70.83125 177.57396L72.01875 177.57396L72.01875 178.44896L70.83125 178.44896L70.83125 180.43333L69.75313 180.43333L69.75313 178.44896L65.8625 178.44896L65.8625 177.80833L69.675 171.90208L70.83125 171.90208L70.83125 177.57396ZM67.09688 177.57396L69.75313 177.57396L69.75313 173.38646L69.6125 173.62083L67.09688 177.57396Z" fill-rule="nonzero"/><path fill="#757575" d="M61.6125 115.53438Q61.6125 117.44063 60.95625 118.37813Q60.315624 119.3 58.925 119.3Q57.565624 119.3 56.909374 118.39375Q56.253124 117.4875 56.221874 115.675L56.221874 114.2375Q56.221874 112.34688 56.8625 111.44063Q57.51875 110.51875 58.909374 110.51875Q60.284374 110.51875 60.940624 111.40938Q61.596874 112.28438 61.6125 114.12813L61.6125 115.53438ZM60.51875 114.05Q60.51875 112.675 60.128124 112.05Q59.753124 111.40938 58.909374 111.40938Q58.08125 111.40938 57.690624 112.05Q57.315624 112.675 57.315624 113.97188L57.315624 115.70625Q57.315624 117.08125 57.70625 117.75313Q58.1125 118.40938 58.925 118.40938Q59.721874 118.40938 60.1125 117.78438Q60.503124 117.15938 60.51875 115.83125L60.51875 114.05ZM63.39375 118.6125Q63.39375 118.33125 63.55 118.14375Q63.721874 117.95625 64.05 117.95625Q64.39375 117.95625 64.56563 118.14375Q64.7375 118.33125 64.7375 118.6125Q64.7375 118.87813 64.56563 119.06563Q64.39375 119.2375 64.05 119.2375Q63.721874 119.2375 63.55 119.06563Q63.39375 118.87813 63.39375 118.6125ZM70.51875 110.64375L70.51875 111.55L70.31563 111.55Q69.05 111.58125 68.3 112.31563Q67.55 113.03438 67.425 114.34688Q68.1125 113.58125 69.26875 113.58125Q70.37813 113.58125 71.05 114.3625Q71.72188 115.14375 71.72188 116.39375Q71.72188 117.70625 71.00313 118.50313Q70.28438 119.3 69.06563 119.3Q67.84688 119.3 67.08125 118.3625Q66.33125 117.40938 66.33125 115.925L66.33125 115.51875Q66.33125 113.15938 67.33125 111.90938Q68.33125 110.65938 70.31563 110.64375L70.51875 110.64375ZM69.09688 114.4875Q68.53438 114.4875 68.06563 114.81563Q67.59688 115.14375 67.40938 115.65938L67.40938 116.05Q67.40938 117.1125 67.87813 117.75313Q68.3625 118.39375 69.06563 118.39375Q69.8 118.39375 70.22188 117.8625Q70.64375 117.31563 70.64375 116.44063Q70.64375 115.56563 70.22188 115.03438Q69.8 114.4875 69.09688 114.4875Z" fill-rule="nonzero"/><path fill="#757575" d="M61.6125 54.276043Q61.6125 56.182293 60.95625 57.119793Q60.315624 58.041668 58.925 58.041668Q57.565624 58.041668 56.909374 57.135418Q56.253124 56.229168 56.221874 54.416668L56.221874 52.979168Q56.221874 51.088543 56.8625 50.182293Q57.51875 49.260418 58.909374 49.260418Q60.284374 49.260418 60.940624 50.151043Q61.596874 51.026043 61.6125 52.869793L61.6125 54.276043ZM60.51875 52.791668Q60.51875 51.416668 60.128124 50.791668Q59.753124 50.151043 58.909374 50.151043Q58.08125 50.151043 57.690624 50.791668Q57.315624 51.416668 57.315624 52.713543L57.315624 54.447918Q57.315624 55.822918 57.70625 56.494793Q58.1125 57.151043 58.925 57.151043Q59.721874 57.151043 60.1125 56.526043Q60.503124 55.901043 60.51875 54.572918L60.51875 52.791668ZM63.39375 57.354168Q63.39375 57.072918 63.55 56.885418Q63.721874 56.697918 64.05 56.697918Q64.39375 56.697918 64.56563 56.885418Q64.7375 57.072918 64.7375 57.354168Q64.7375 57.619793 64.56563 57.807293Q64.39375 57.979168 64.05 57.979168Q63.721874 57.979168 63.55 57.807293Q63.39375 57.619793 63.39375 57.354168ZM71.44063 51.604168Q71.44063 52.244793 71.09688 52.744793Q70.75313 53.244793 70.19063 53.526043Q70.84688 53.807293 71.2375 54.369793Q71.62813 54.916668 71.62813 55.619793Q71.62813 56.713543 70.87813 57.385418Q70.14375 58.041668 68.925 58.041668Q67.69063 58.041668 66.94063 57.385418Q66.20625 56.713543 66.20625 55.619793Q66.20625 54.916668 66.58125 54.369793Q66.95625 53.807293 67.62813 53.526043Q67.06563 53.244793 66.7375 52.744793Q66.40938 52.244793 66.40938 51.604168Q66.40938 50.526043 67.09688 49.901043Q67.78438 49.260418 68.925 49.260418Q70.05 49.260418 70.7375 49.901043Q71.44063 50.526043 71.44063 51.604168ZM70.55 55.588543Q70.55 54.869793 70.09688 54.432293Q69.64375 53.979168 68.90938 53.979168Q68.175 53.979168 67.72188 54.432293Q67.28438 54.869793 67.28438 55.604168Q67.28438 56.322918 67.72188 56.744793Q68.15938 57.151043 68.925 57.151043Q69.675 57.151043 70.1125 56.729168Q70.55 56.307293 70.55 55.588543ZM68.925 50.151043Q68.28438 50.151043 67.87813 50.557293Q67.4875 50.947918 67.4875 51.635418Q67.4875 52.276043 67.87813 52.682293Q68.26875 53.088543 68.90938 53.088543Q69.56563 53.088543 69.95625 52.682293Q70.34688 52.276043 70.34688 51.635418Q70.34688 50.979168 69.94063 50.572918Q69.53438 50.151043 68.925 50.151043Z" fill-rule="nonzero"/><path fill="#757575" d="M87.922905 312.8094Q87.922905 314.71564 87.266655 315.65314Q86.62603 316.575 85.235405 316.575Q83.87603 316.575 83.21978 315.66876Q82.56353 314.7625 82.53228 312.95L82.53228 311.5125Q82.53228 309.6219 83.172905 308.71564Q83.829155 307.79376 85.21978 307.79376Q86.59478 307.79376 87.25103 308.6844Q87.90728 309.5594 87.922905 311.40314L87.922905 312.8094ZM86.829155 311.325Q86.829155 309.95 86.43853 309.325Q86.06353 308.6844 85.21978 308.6844Q84.391655 308.6844 84.00103 309.325Q83.62603 309.95 83.62603 311.2469L83.62603 312.98126Q83.62603 314.35626 84.016655 315.02814Q84.422905 315.6844 85.235405 315.6844Q86.03228 315.6844 86.422905 315.0594Q86.81353 314.4344 86.829155 313.10626L86.829155 311.325Z" fill-rule="nonzero"/><path fill="#757575" d="M206.97708 316.45L201.38333 316.45L201.38333 315.66876L204.33646 312.3875Q204.9927 311.6375 205.2427 311.1844Q205.4927 310.71564 205.4927 310.21564Q205.4927 309.54376 205.08646 309.1219Q204.69583 308.6844 204.00833 308.6844Q203.21146 308.6844 202.75833 309.15314Q202.3052 309.60626 202.3052 310.4344L201.22708 310.4344Q201.22708 309.2469 201.97708 308.52814Q202.7427 307.79376 204.00833 307.79376Q205.21146 307.79376 205.89896 308.41876Q206.58646 309.04376 206.58646 310.09064Q206.58646 311.34064 204.97708 313.09064L202.69583 315.5594L206.97708 315.5594L206.97708 316.45ZM208.88333 312.16876L209.32083 307.91876L213.69583 307.91876L213.69583 308.91876L210.2427 308.91876L209.97708 311.2469Q210.6177 310.8719 211.41458 310.8719Q212.57083 310.8719 213.25833 311.65314Q213.94583 312.41876 213.94583 313.73126Q213.94583 315.04376 213.22708 315.8094Q212.52396 316.575 211.2427 316.575Q210.1177 316.575 209.39896 315.95Q208.6802 315.3094 208.58646 314.2L209.60208 314.2Q209.71146 314.9344 210.13333 315.3094Q210.5552 315.6844 211.2427 315.6844Q211.9927 315.6844 212.4302 315.16876Q212.8677 314.65314 212.8677 313.7469Q212.8677 312.8875 212.39896 312.3719Q211.9302 311.85626 211.14896 311.85626Q210.44583 311.85626 210.03958 312.15314L209.75833 312.3875L208.88333 312.16876Z" fill-rule="nonzero"/><path fill="#757575" d="M324.20312 312.16876L324.64062 307.91876L329.01562 307.91876L329.01562 308.91876L325.5625 308.91876L325.29688 311.2469Q325.9375 310.8719 326.73438 310.8719Q327.89062 310.8719 328.57812 311.65314Q329.26562 312.41876 329.26562 313.73126Q329.26562 315.04376 328.54688 315.8094Q327.84375 316.575 326.5625 316.575Q325.4375 316.575 324.71875 315.95Q324.0 315.3094 323.90625 314.2L324.92188 314.2Q325.03125 314.9344 325.45312 315.3094Q325.875 315.6844 326.5625 315.6844Q327.3125 315.6844 327.75 315.16876Q328.1875 314.65314 328.1875 313.7469Q328.1875 312.8875 327.71875 312.3719Q327.25 311.85626 326.46875 311.85626Q325.76562 311.85626 325.35938 312.15314L325.07812 312.3875L324.20312 312.16876ZM336.0625 312.8094Q336.0625 314.71564 335.40625 315.65314Q334.76562 316.575 333.375 316.575Q332.01562 316.575 331.35938 315.66876Q330.70312 314.7625 330.67188 312.95L330.67188 311.5125Q330.67188 309.6219 331.3125 308.71564Q331.96875 307.79376 333.35938 307.79376Q334.73438 307.79376 335.39062 308.6844Q336.04688 309.5594 336.0625 311.40314L336.0625 312.8094ZM334.96875 311.325Q334.96875 309.95 334.57812 309.325Q334.20312 308.6844 333.35938 308.6844Q332.53125 308.6844 332.14062 309.325Q331.76562 309.95 331.76562 311.2469L331.76562 312.98126Q331.76562 314.35626 332.15625 315.02814Q332.5625 315.6844 333.375 315.6844Q334.17188 315.6844 334.5625 315.0594Q334.95312 314.4344 334.96875 313.10626L334.96875 311.325Z" fill-rule="nonzero"/><path fill="#757575" d="M451.53854 308.52814L448.0073 316.45L446.86667 316.45L450.3823 308.8094L445.77292 308.8094L445.77292 307.91876L451.53854 307.91876L451.53854 308.52814ZM453.52292 312.16876L453.96042 307.91876L458.33542 307.91876L458.33542 308.91876L454.8823 308.91876L454.61667 311.2469Q455.2573 310.8719 456.05417 310.8719Q457.21042 310.8719 457.89792 311.65314Q458.58542 312.41876 458.58542 313.73126Q458.58542 315.04376 457.86667 315.8094Q457.16354 316.575 455.8823 316.575Q454.7573 316.575 454.03854 315.95Q453.3198 315.3094 453.22604 314.2L454.24167 314.2Q454.35104 314.9344 454.77292 315.3094Q455.1948 315.6844 455.8823 315.6844Q456.6323 315.6844 457.0698 315.16876Q457.5073 314.65314 457.5073 313.7469Q457.5073 312.8875 457.03854 312.3719Q456.5698 311.85626 455.78854 311.85626Q455.08542 311.85626 454.67917 312.15314L454.39792 312.3875L453.52292 312.16876Z" fill-rule="nonzero"/><path fill="#757575" d="M568.4052 316.45L567.3271 316.45L567.3271 309.23126L565.1396 310.02814L565.1396 309.04376L568.24896 307.8719L568.4052 307.8719L568.4052 316.45ZM577.2021 312.8094Q577.2021 314.71564 576.54584 315.65314Q575.9052 316.575 574.5146 316.575Q573.1552 316.575 572.49896 315.66876Q571.8427 314.7625 571.81146 312.95L571.81146 311.5125Q571.81146 309.6219 572.4521 308.71564Q573.10834 307.79376 574.49896 307.79376Q575.87396 307.79376 576.5302 308.6844Q577.18646 309.5594 577.2021 311.40314L577.2021 312.8094ZM576.10834 311.325Q576.10834 309.95 575.7177 309.325Q575.3427 308.6844 574.49896 308.6844Q573.67084 308.6844 573.2802 309.325Q572.9052 309.95 572.9052 311.2469L572.9052 312.98126Q572.9052 314.35626 573.29584 315.02814Q573.7021 315.6844 574.5146 315.6844Q575.31146 315.6844 575.7021 315.0594Q576.0927 314.4344 576.10834 313.10626L576.10834 311.325ZM584.2021 312.8094Q584.2021 314.71564 583.54584 315.65314Q582.9052 316.575 581.5146 316.575Q580.1552 316.575 579.49896 315.66876Q578.8427 314.7625 578.81146 312.95L578.81146 311.5125Q578.81146 309.6219 579.4521 308.71564Q580.10834 307.79376 581.49896 307.79376Q582.87396 307.79376 583.5302 308.6844Q584.18646 309.5594 584.2021 311.40314L584.2021 312.8094ZM583.10834 311.325Q583.10834 309.95 582.7177 309.325Q582.3427 308.6844 581.49896 308.6844Q580.67084 308.6844 580.2802 309.325Q579.9052 309.95 579.9052 311.2469L579.9052 312.98126Q579.9052 314.35626 580.29584 315.02814Q580.7021 315.6844 581.5146 315.6844Q582.31146 315.6844 582.7021 315.0594Q583.0927 314.4344 583.10834 313.10626L583.10834 311.325Z" fill-rule="nonzero"/><path fill="#4285f4" d="M237.0 26.05C237.0 29.363708 234.3137 32.05 231.0 32.05C227.6863 32.05 225.0 29.363708 225.0 26.05C225.0 22.736292 227.6863 20.05 231.0 20.05C234.3137 20.05 237.0 22.736292 237.0 26.05Z" fill-rule="nonzero"/><path fill="#757575" d="M248.45312 30.675Q247.15625 30.675 246.34375 29.83125Q245.54688 28.971874 245.54688 27.55L245.54688 27.3625Q245.54688 26.409374 245.90625 25.675Q246.26562 24.925 246.90625 24.51875Q247.5625 24.096874 248.3125 24.096874Q249.54688 24.096874 250.23438 24.909374Q250.92188 25.721874 250.92188 27.2375L250.92188 27.690624L246.625 27.690624Q246.65625 28.628124 247.17188 29.20625Q247.70312 29.784374 248.51562 29.784374Q249.07812 29.784374 249.46875 29.55Q249.875 29.315624 250.1875 28.925L250.84375 29.440624Q250.04688 30.675 248.45312 30.675ZM248.3125 24.9875Q247.65625 24.9875 247.20312 25.471874Q246.76562 25.940624 246.67188 26.8L249.84375 26.8L249.84375 26.721874Q249.79688 25.89375 249.39062 25.440624Q249.0 24.9875 248.3125 24.9875ZM253.95312 26.51875L255.35938 24.20625L256.625 24.20625L254.54688 27.346874L256.6875 30.55L255.4375 30.55L253.96875 28.175L252.5 30.55L251.23438 30.55L253.375 27.346874L251.3125 24.20625L252.5625 24.20625L253.95312 26.51875ZM263.17188 27.45625Q263.17188 28.89375 262.51562 29.784374Q261.85938 30.675 260.71875 30.675Q259.5625 30.675 258.90625 29.940624L258.90625 32.9875L257.82812 32.9875L257.82812 24.20625L258.8125 24.20625L258.85938 24.909374Q259.53125 24.096874 260.70312 24.096874Q261.84375 24.096874 262.5 24.95625Q263.17188 25.815624 263.17188 27.346874L263.17188 27.45625ZM262.09375 27.33125Q262.09375 26.253124 261.625 25.64375Q261.17188 25.01875 260.375 25.01875Q259.39062 25.01875 258.90625 25.878124L258.90625 28.909374Q259.39062 29.784374 260.39062 29.784374Q261.17188 29.784374 261.625 29.175Q262.09375 28.55 262.09375 27.33125ZM267.45312 30.675Q266.15625 30.675 265.34375 29.83125Q264.54688 28.971874 264.54688 27.55L264.54688 27.3625Q264.54688 26.409374 264.90625 25.675Q265.26562 24.925 265.90625 24.51875Q266.5625 24.096874 267.3125 24.096874Q268.54688 24.096874 269.23438 24.909374Q269.92188 25.721874 269.92188 27.2375L269.92188 27.690624L265.625 27.690624Q265.65625 28.628124 266.17188 29.20625Q266.70312 29.784374 267.51562 29.784374Q268.07812 29.784374 268.46875 29.55Q268.875 29.315624 269.1875 28.925L269.84375 29.440624Q269.04688 30.675 267.45312 30.675ZM267.3125 24.9875Q266.65625 24.9875 266.20312 25.471874Q265.76562 25.940624 265.67188 26.8L268.84375 26.8L268.84375 26.721874Q268.79688 25.89375 268.39062 25.440624Q268.0 24.9875 267.3125 24.9875ZM273.89062 25.175Q273.64062 25.14375 273.35938 25.14375Q272.28125 25.14375 271.90625 26.05L271.90625 30.55L270.82812 30.55L270.82812 24.20625L271.875 24.20625L271.89062 24.940624Q272.42188 24.096874 273.40625 24.096874Q273.71875 24.096874 273.89062 24.175L273.89062 25.175ZM276.0 30.55L274.92188 30.55L274.92188 24.20625L276.0 24.20625L276.0 30.55ZM274.82812 22.534374Q274.82812 22.26875 274.98438 22.08125Q275.15625 21.89375 275.46875 21.89375Q275.78125 21.89375 275.9375 22.08125Q276.10938 22.26875 276.10938 22.534374Q276.10938 22.784374 275.9375 22.971874Q275.78125 23.14375 275.46875 23.14375Q275.15625 23.14375 274.98438 22.971874Q274.82812 22.784374 274.82812 22.534374ZM278.84375 24.20625L278.875 24.909374Q279.5625 24.096874 280.75 24.096874Q282.07812 24.096874 282.5625 25.1125Q282.875 24.659374 283.375 24.378124Q283.89062 24.096874 284.57812 24.096874Q286.67188 24.096874 286.70312 26.3L286.70312 30.55L285.625 30.55L285.625 26.3625Q285.625 25.690624 285.3125 25.3625Q285.0 25.01875 284.26562 25.01875Q283.65625 25.01875 283.25 25.378124Q282.85938 25.7375 282.79688 26.346874L282.79688 30.55L281.71875 30.55L281.71875 26.39375Q281.71875 25.01875 280.35938 25.01875Q279.29688 25.01875 278.90625 25.925L278.90625 30.55L277.8125 30.55L277.8125 24.20625L278.84375 24.20625ZM291.45312 30.675Q290.15625 30.675 289.34375 29.83125Q288.54688 28.971874 288.54688 27.55L288.54688 27.3625Q288.54688 26.409374 288.90625 25.675Q289.26562 24.925 289.90625 24.51875Q290.5625 24.096874 291.3125 24.096874Q292.54688 24.096874 293.23438 24.909374Q293.92188 25.721874 293.92188 27.2375L293.92188 27.690624L289.625 27.690624Q289.65625 28.628124 290.17188 29.20625Q290.70312 29.784374 291.51562 29.784374Q292.07812 29.784374 292.46875 29.55Q292.875 29.315624 293.1875 28.925L293.84375 29.440624Q293.04688 30.675 291.45312 30.675ZM291.3125 24.9875Q290.65625 24.9875 290.20312 25.471874Q289.76562 25.940624 289.67188 26.8L292.84375 26.8L292.84375 26.721874Q292.79688 25.89375 292.39062 25.440624Q292.0 24.9875 291.3125 24.9875ZM295.84375 24.20625L295.875 25.003124Q296.60938 24.096874 297.78125 24.096874Q299.79688 24.096874 299.8125 26.3625L299.8125 30.55L298.71875 30.55L298.71875 26.346874Q298.71875 25.675 298.40625 25.346874Q298.10938 25.01875 297.45312 25.01875Q296.92188 25.01875 296.51562 25.3Q296.125 25.58125 295.90625 26.034374L295.90625 30.55L294.82812 30.55L294.82812 24.20625L295.84375 24.20625ZM303.29688 22.675L303.29688 24.20625L304.46875 24.20625L304.46875 25.05L303.29688 25.05L303.29688 28.971874Q303.29688 29.3625 303.45312 29.55Q303.60938 29.7375 303.98438 29.7375Q304.17188 29.7375 304.5 29.675L304.5 30.55Q304.07812 30.675 303.67188 30.675Q302.95312 30.675 302.57812 30.2375Q302.20312 29.784374 302.20312 28.971874L302.20312 25.05L301.04688 25.05L301.04688 24.20625L302.20312 24.20625L302.20312 22.675L303.29688 22.675Z" fill-rule="nonzero"/><path fill="#db4437" d="M327.0 20.05L333.0 26.05L327.0 32.05L321.0 26.05Z" fill-rule="nonzero"/><path fill="#757575" d="M343.29688 22.675L343.29688 24.20625L344.46875 24.20625L344.46875 25.05L343.29688 25.05L343.29688 28.971874Q343.29688 29.3625 343.45312 29.55Q343.60938 29.7375 343.98438 29.7375Q344.17188 29.7375 344.5 29.675L344.5 30.55Q344.07812 30.675 343.67188 30.675Q342.95312 30.675 342.57812 30.2375Q342.20312 29.784374 342.20312 28.971874L342.20312 25.05L341.04688 25.05L341.04688 24.20625L342.20312 24.20625L342.20312 22.675L343.29688 22.675ZM346.90625 24.971874Q347.625 24.096874 348.78125 24.096874Q350.79688 24.096874 350.8125 26.3625L350.8125 30.55L349.71875 30.55L349.71875 26.346874Q349.71875 25.675 349.40625 25.346874Q349.10938 25.01875 348.45312 25.01875Q347.92188 25.01875 347.51562 25.3Q347.125 25.58125 346.90625 26.034374L346.90625 30.55L345.82812 30.55L345.82812 21.55L346.90625 21.55L346.90625 24.971874ZM355.45312 30.675Q354.15625 30.675 353.34375 29.83125Q352.54688 28.971874 352.54688 27.55L352.54688 27.3625Q352.54688 26.409374 352.90625 25.675Q353.26562 24.925 353.90625 24.51875Q354.5625 24.096874 355.3125 24.096874Q356.54688 24.096874 357.23438 24.909374Q357.92188 25.721874 357.92188 27.2375L357.92188 27.690624L353.625 27.690624Q353.65625 28.628124 354.17188 29.20625Q354.70312 29.784374 355.51562 29.784374Q356.07812 29.784374 356.46875 29.55Q356.875 29.315624 357.1875 28.925L357.84375 29.440624Q357.04688 30.675 355.45312 30.675ZM355.3125 24.9875Q354.65625 24.9875 354.20312 25.471874Q353.76562 25.940624 353.67188 26.8L356.84375 26.8L356.84375 26.721874Q356.79688 25.89375 356.39062 25.440624Q356.0 24.9875 355.3125 24.9875ZM358.53125 27.315624Q358.53125 26.39375 358.89062 25.64375Q359.26562 24.89375 359.92188 24.503124Q360.57812 24.096874 361.40625 24.096874Q362.70312 24.096874 363.5 24.9875Q364.3125 25.878124 364.3125 27.378124L364.3125 27.45625Q364.3125 28.378124 363.95312 29.1125Q363.59375 29.846874 362.9375 30.26875Q362.28125 30.675 361.42188 30.675Q360.14062 30.675 359.32812 29.784374Q358.53125 28.878124 358.53125 27.39375L358.53125 27.315624ZM359.625 27.45625Q359.625 28.503124 360.10938 29.14375Q360.60938 29.784374 361.42188 29.784374Q362.25 29.784374 362.73438 29.14375Q363.21875 28.4875 363.21875 27.315624Q363.21875 26.284374 362.71875 25.64375Q362.23438 24.9875 361.40625 24.9875Q360.60938 24.9875 360.10938 25.628124Q359.625 26.253124 359.625 27.45625ZM368.89062 25.175Q368.64062 25.14375 368.35938 25.14375Q367.28125 25.14375 366.90625 26.05L366.90625 30.55L365.82812 30.55L365.82812 24.20625L366.875 24.20625L366.89062 24.940624Q367.42188 24.096874 368.40625 24.096874Q368.71875 24.096874 368.89062 24.175L368.89062 25.175ZM371.89062 28.95625L373.375 24.20625L374.53125 24.20625L371.98438 31.534374Q371.39062 33.1125 370.10938 33.1125L369.89062 33.096874L369.5 33.01875L369.5 32.14375L369.78125 32.159374Q370.34375 32.159374 370.64062 31.940624Q370.95312 31.721874 371.15625 31.128124L371.39062 30.471874L369.125 24.20625L370.3125 24.20625L371.89062 28.95625Z" fill-rule="nonzero"/></svg>